<?xml version="1.0" encoding="UTF-8" standalone="no"?>
<!-- Created with Inkscape (http://www.inkscape.org/) -->

<svg
   version="1.1"
   id="svg1"
   width="512"
   height="512"
   viewBox="0 0 512 512"
   sodipodi:docname="vinyl-disc.png"
   xmlns:inkscape="http://www.inkscape.org/namespaces/inkscape"
   xmlns:sodipodi="http://sodipodi.sourceforge.net/DTD/sodipodi-0.dtd"
   xmlns="http://www.w3.org/2000/svg"
   xmlns:svg="http://www.w3.org/2000/svg">
  <defs
     id="defs1" />
  <sodipodi:namedview
     id="namedview1"
     pagecolor="#ffffff"
     bordercolor="#000000"
     borderopacity="0.25"
     inkscape:showpageshadow="2"
     inkscape:pageopacity="0.0"
     inkscape:pagecheckerboard="0"
     inkscape:deskcolor="#d1d1d1"
     inkscape:zoom="0.8345355"
     inkscape:cx="300.16698"
     inkscape:cy="246.24477"
     inkscape:window-width="1512"
     inkscape:window-height="922"
     inkscape:window-x="0"
     inkscape:window-y="32"
     inkscape:window-maximized="0"
     inkscape:current-layer="svg1">
    <inkscape:page
       x="0"
       y="0"
       width="512"
       height="512"
       id="page2"
       margin="0"
       bleed="0" />
  </sodipodi:namedview>
  <path
     style="fill:#000000"
     d="m 236.5,511.39506 c -12.41633,-1.2747 -22.33893,-2.76301 -33.20504,-4.98047 C 134.46644,492.36864 73.122192,448.83994 36.717792,388.21462 28.176006,373.98973 24.740123,367.06907 18.473128,351.46566 -19.818241,256.12871 2.3774081,147.58489 75.006376,75 137.56108,12.483263 226.42287,-13.008701 313.62078,6.5481965 359.2792,16.788546 402.25628,40.611094 436.42972,74.622201 487.10259,125.05437 514.06949,192.92365 511.67632,264 c -2.23123,66.26675 -28.25773,126.53407 -74.69999,172.97633 -39.3854,39.38539 -89.25418,64.31767 -145.17278,72.58024 -9.88115,1.46005 -46.97756,2.69326 -55.30355,1.83849 z m -45.13486,-59.46764 c 3.15057,-2.47824 3.61119,-7.76217 0.88486,-10.15045 -0.9625,-0.84315 -6.73655,-3.62303 -12.83123,-6.1775 C 133.5552,416.37659 95.623414,378.4448 76.400532,332.58123 c -2.554473,-6.09468 -5.354103,-11.89056 -6.221401,-12.87974 -2.387068,-2.72252 -7.963357,-1.89697 -10.533173,1.5594 -2.048144,2.75473 -2.048408,2.7737 -0.118206,8.5 3.160346,9.37576 14.797732,32.01781 21.915035,42.63856 16.447798,24.54412 39.040873,46.44102 63.754503,61.79002 12.59335,7.8214 37.5113,19.41598 42.41785,19.73746 0.61333,0.0402 2.30083,-0.85959 3.75,-1.99951 z m 15.9034,-41.07379 c 1.56395,-2.10387 1.77547,-3.23134 1.03184,-5.5 -1.00211,-3.05722 -1.73691,-3.50642 -17.75716,-10.85528 -15.9474,-7.31544 -28.38559,-16.19581 -42.61567,-30.4259 -16.79605,-16.79604 -25.348,-29.77522 -35.79562,-54.3265 -2.23726,-5.25741 -5.54251,-7.30074 -9.42303,-5.82537 -6.783659,2.57914 -6.138519,7.90137 3.21467,26.52013 9.04684,18.00895 17.82092,30.24471 31.57643,44.03446 12.30147,12.33209 25.20381,21.91991 39.77993,29.56075 20.19156,10.58446 26.177,11.94521 29.98861,6.81771 z m 67.97372,-46.30382 c 22.86252,-4.07629 41.0763,-13.75711 58.31337,-30.99418 13.8591,-13.85909 21.69256,-26.3156 26.96868,-42.88469 10.45258,-32.82516 5.7809,-67.39009 -12.99814,-96.17094 -5.04196,-7.72732 -22.29727,-24.983 -30.02617,-30.0268 -20.90403,-13.64177 -41.58829,-19.26544 -66.89521,-18.1876 -25.0175,1.06551 -47.8902,9.99294 -65.84463,25.69979 -19.95771,17.45934 -31.67907,37.23721 -36.79889,62.09208 -2.98067,14.47006 -2.40593,35.87856 1.34576,50.12834 7.67425,29.14855 27.60303,54.33882 54.69297,69.13269 7.76459,4.24025 22.81293,9.42587 32.5,11.19942 9.3541,1.71258 29.16958,1.71866 38.74226,0.0119 z M 240.4496,350.60956 c -22.58832,-4.33027 -39.75352,-13.55856 -54.45763,-29.27729 -11.17275,-11.94371 -18.69482,-25.61531 -23.21054,-42.18585 -2.99564,-10.99261 -2.99564,-35.30023 0,-46.29284 4.51363,-16.56289 12.0381,-30.24247 23.19559,-42.16986 20.5904,-22.0112 51.3657,-33.34953 80.79426,-29.76648 77.63108,9.45192 112.03813,100.77931 60.09725,159.51745 -11.11006,12.56398 -31.14987,24.52074 -47.86853,28.56078 -11.006,2.65959 -29.13679,3.41872 -38.5504,1.61409 z m 24.75118,-49.71127 c 23.73368,-4.93424 40.01677,-28.50903 35.97416,-52.08369 -1.64693,-9.60413 -6.14402,-18.39238 -12.83619,-25.08455 -6.62849,-6.62849 -12.84867,-10.16711 -21.42538,-12.18877 -16.24339,-3.82879 -30.95992,0.41802 -42.98931,12.40562 -18.54275,18.47834 -18.5331,45.55025 0.0228,64.1062 11.49327,11.49326 26.01206,16.01397 41.25388,12.84519 z m 146.16436,-93.97087 c 4.3318,-3.4074 3.18192,-8.88979 -5.50257,-26.23511 -17.9955,-35.94195 -49.36147,-64.87612 -86.83556,-80.1032 -7.45612,-3.029699 -11.13793,-3.263391 -13.22002,-0.83911 -4.22689,4.92156 -2.77091,9.51171 3.93896,12.41809 23.13099,10.01918 36.13125,18.1978 50.41747,31.71825 16.93275,16.02512 27.75139,31.18498 36.25537,50.80364 6.21084,14.32839 9.18862,16.76647 14.94635,12.23744 z m 39.99792,-14.43334 c 2.9442,-2.9442 2.79677,-5.34525 -0.90384,-14.72043 -16.16376,-40.94948 -46.87981,-77.26364 -85.47946,-101.058402 -8.77044,-5.406537 -28.12801,-14.700555 -35.83626,-17.205811 -5.20067,-1.690271 -5.4334,-1.68375 -8,0.224165 -3.34105,2.483612 -4.11892,8.107879 -1.44201,10.426231 0.98918,0.856684 6.99362,3.790556 13.34319,6.519716 46.24175,19.875521 82.33922,56.083211 102.57964,102.892841 3.07443,7.11019 6.10418,13.25822 6.73278,13.6623 1.98378,1.27522 7.43872,0.82664 9.00596,-0.74061 z"
     id="path1" />
</svg>
